<svg xmlns="http://www.w3.org/2000/svg" width="142.996" height="82.24" viewBox="0 0 142.996 82.24">
  <g id="Group_20" data-name="Group 20" transform="translate(-154.111 -67.76)">
    <path id="Path_13" data-name="Path 13" d="M34.892-36.3a2.1,2.1,0,0,1,1.612.754,2.1,2.1,0,0,1,.52,1.794L33.436-1.612a2.322,2.322,0,0,1-.7,1.456,2.061,2.061,0,0,1-1.482.572H31.2a2.038,2.038,0,0,1-1.456-.6,2.373,2.373,0,0,1-.728-1.482,43.694,43.694,0,0,0-1.04-5.148,20.753,20.753,0,0,0-2.21-5.33,14.912,14.912,0,0,0-3.822-4.316,11.03,11.03,0,0,0-5.876-2.106,2.41,2.41,0,0,0-.468-.052h-.416l-1.924,17a2.322,2.322,0,0,1-.7,1.456,2,2,0,0,1-1.43.572h-.052A2,2,0,0,1,9.464-.338a2.336,2.336,0,0,1-.52-1.794L10.66-17.94a10.6,10.6,0,0,0-3.328,2.054,8.377,8.377,0,0,0-2.158,3.042,7.207,7.207,0,0,0-.442,3.718A8.908,8.908,0,0,0,6.448-5.1a2,2,0,0,1,.39,1.2A2,2,0,0,1,6.5-2.86a2.08,2.08,0,0,1-.858.728,2.687,2.687,0,0,1-1.17.26A2.321,2.321,0,0,1,2.6-2.86,11.558,11.558,0,0,1,.208-9.152,12,12,0,0,1,1.43-15.158a14.233,14.233,0,0,1,3.952-4.836,14.184,14.184,0,0,1,5.85-2.782l1.3-11.492a2.322,2.322,0,0,1,.7-1.456,2,2,0,0,1,1.43-.572h.052a2.1,2.1,0,0,1,1.612.754,2.239,2.239,0,0,1,.572,1.794L15.652-23.036a16.621,16.621,0,0,1,4.524.962,18.761,18.761,0,0,1,4.16,2.106,17.215,17.215,0,0,1,3.458,3.094,15.763,15.763,0,0,1,2.47,3.926l2.444-21.32a2.322,2.322,0,0,1,.7-1.456,2,2,0,0,1,1.43-.572ZM65-4.42a6.269,6.269,0,0,0,2.288-.494,23.559,23.559,0,0,0,2.418-1.118q1.17-.624,2.158-1.118a3.794,3.794,0,0,1,1.508-.494,1.909,1.909,0,0,1,1.4.572,1.972,1.972,0,0,1,.572,1.456,2.682,2.682,0,0,1-1.3,2.028A15.427,15.427,0,0,1,71.006-1.82,25.136,25.136,0,0,1,67.5-.546a10.968,10.968,0,0,1-2.7.494,4.594,4.594,0,0,1-2.86-.832,9.649,9.649,0,0,1-2.08-2.288A11.129,11.129,0,0,1,51.9,0a11.621,11.621,0,0,1-4.5-.832,9.9,9.9,0,0,1-3.432-2.34,10.414,10.414,0,0,1-2.21-3.64,13.687,13.687,0,0,1-.78-4.732,14.744,14.744,0,0,1,1.066-5.694,12.959,12.959,0,0,1,2.938-4.394,13.065,13.065,0,0,1,4.394-2.808,14.622,14.622,0,0,1,5.382-.988,11.923,11.923,0,0,1,6.448,1.82,2.323,2.323,0,0,1,1.4-.416,1.965,1.965,0,0,1,1.274.442,1.6,1.6,0,0,1,.546,1.326V-22q-.26,1.976-.494,3.978t-.494,4.03a20.331,20.331,0,0,1-.416,2.834,13.5,13.5,0,0,0-.312,2.886A10.944,10.944,0,0,0,62.79-7.02a4.144,4.144,0,0,0,.338,1.248,2.82,2.82,0,0,0,.7.962A1.7,1.7,0,0,0,65-4.42ZM45.032-11.44a7.246,7.246,0,0,0,1.794,5.148,6.326,6.326,0,0,0,4.862,1.924A7.946,7.946,0,0,0,55.51-5.3a8.406,8.406,0,0,0,2.938-2.652,1.261,1.261,0,0,0,.156-.182.393.393,0,0,1,.156-.13,47.284,47.284,0,0,1,.442-5.538q.39-2.834.806-5.538a10.4,10.4,0,0,0-2.548-1.3,8.524,8.524,0,0,0-2.808-.468,10.539,10.539,0,0,0-3.8.676,8.573,8.573,0,0,0-3.042,1.95,9.472,9.472,0,0,0-2.028,3.068A10.169,10.169,0,0,0,45.032-11.44Zm51.74,4.368A1.846,1.846,0,0,1,97.6-7.28a1.684,1.684,0,0,1,1.3.572,2.767,2.767,0,0,1,.676,1.3,2.722,2.722,0,0,1-.1,1.482,1.874,1.874,0,0,1-1.144,1.118q-1.716.78-2.86,1.326L93.288-.442q-1.04.494-2.21,1.014T88.088,1.82A55.322,55.322,0,0,1,86.58,7.566a22.324,22.324,0,0,1-2.5,5.356,13.548,13.548,0,0,1-3.9,3.978,10.177,10.177,0,0,1-5.772,1.56A9.818,9.818,0,0,1,69.212,17a8.11,8.11,0,0,1-3.432-4.576,5.925,5.925,0,0,1-.286-3.276,5.95,5.95,0,0,1,1.3-2.574,10.4,10.4,0,0,1,2.366-2,19.958,19.958,0,0,1,2.964-1.534q1.56-.65,3.094-1.17t2.73-.936q1.664-.572,3.224-1.17t3.172-1.274q.1-.416.182-.858t.182-.858a14.654,14.654,0,0,1-2.418.91,9.417,9.417,0,0,1-2.522.338,9.064,9.064,0,0,1-3.51-.7,8.887,8.887,0,0,1-3.094-2.21A8.614,8.614,0,0,1,71.136-8.71a20.764,20.764,0,0,1-.572-4.394,51.8,51.8,0,0,1,.286-6.344q.338-3.172.91-6.292a1.764,1.764,0,0,1,.624-1.274,1.864,1.864,0,0,1,1.144-.39,2.558,2.558,0,0,1,1.768.78A2.129,2.129,0,0,1,75.92-24.6q-.312,2.34-.572,4.628t-.364,4.628q-.052,1.508-.026,3.12a8.276,8.276,0,0,0,.6,3.016A4.645,4.645,0,0,0,77.3-7.046a4.364,4.364,0,0,0,2.314.65,6.365,6.365,0,0,0,3.354-1.04A8.969,8.969,0,0,0,85.7-9.984q.572-4.212.91-8.424t.546-8.424a2.144,2.144,0,0,1,.806-1.612,2.522,2.522,0,0,1,1.534-.52,2.308,2.308,0,0,1,1.482.52,1.715,1.715,0,0,1,.546,1.612q-.208,4.42-.546,8.736t-.91,8.684v.338a.877.877,0,0,1-.1.39q-.208,1.352-.416,2.652T89.128-3.38q1.352-.572,2.21-.988t1.612-.806l1.612-.832Q95.42-6.448,96.772-7.072ZM83.2,3.692a4.237,4.237,0,0,1-.65.26q-.338.1-.65.208-.624.26-1.924.65t-2.782.884q-1.482.494-2.964,1.118A13.439,13.439,0,0,0,71.682,8.19,4.663,4.663,0,0,0,70.174,9.8a1.829,1.829,0,0,0,.13,1.846,4.668,4.668,0,0,0,1.872,1.846,5,5,0,0,0,2.34.6,5.72,5.72,0,0,0,3.458-1.04,9.738,9.738,0,0,0,2.444-2.6,17.108,17.108,0,0,0,1.69-3.38Q82.784,5.252,83.2,3.692ZM118.56-4.42a6.269,6.269,0,0,0,2.288-.494,23.56,23.56,0,0,0,2.418-1.118q1.17-.624,2.158-1.118a3.794,3.794,0,0,1,1.508-.494,1.909,1.909,0,0,1,1.4.572,1.972,1.972,0,0,1,.572,1.456,2.682,2.682,0,0,1-1.3,2.028,15.426,15.426,0,0,1-3.042,1.768,25.136,25.136,0,0,1-3.51,1.274,10.968,10.968,0,0,1-2.7.494,4.594,4.594,0,0,1-2.86-.832,9.649,9.649,0,0,1-2.08-2.288A11.129,11.129,0,0,1,105.456,0a11.621,11.621,0,0,1-4.5-.832,9.9,9.9,0,0,1-3.432-2.34,10.414,10.414,0,0,1-2.21-3.64,13.687,13.687,0,0,1-.78-4.732A14.744,14.744,0,0,1,95.6-17.238a12.959,12.959,0,0,1,2.938-4.394,13.065,13.065,0,0,1,4.394-2.808,14.622,14.622,0,0,1,5.382-.988,11.923,11.923,0,0,1,6.448,1.82,2.323,2.323,0,0,1,1.4-.416,1.965,1.965,0,0,1,1.274.442,1.6,1.6,0,0,1,.546,1.326V-22q-.26,1.976-.494,3.978T117-13.988a20.329,20.329,0,0,1-.416,2.834,13.5,13.5,0,0,0-.312,2.886,10.943,10.943,0,0,0,.078,1.248,4.144,4.144,0,0,0,.338,1.248,2.82,2.82,0,0,0,.7.962A1.7,1.7,0,0,0,118.56-4.42ZM98.592-11.44a7.246,7.246,0,0,0,1.794,5.148,6.326,6.326,0,0,0,4.862,1.924A7.946,7.946,0,0,0,109.07-5.3a8.406,8.406,0,0,0,2.938-2.652,1.26,1.26,0,0,0,.156-.182.393.393,0,0,1,.156-.13,47.283,47.283,0,0,1,.442-5.538q.39-2.834.806-5.538a10.4,10.4,0,0,0-2.548-1.3,8.524,8.524,0,0,0-2.808-.468,10.539,10.539,0,0,0-3.8.676,8.573,8.573,0,0,0-3.042,1.95,9.472,9.472,0,0,0-2.028,3.068A10.169,10.169,0,0,0,98.592-11.44Z" transform="translate(168.199 124.76)" fill="#fff"/>
    <path id="Ellipse_32" data-name="Ellipse 32" d="M6.046,56.487a2.253,2.253,0,0,1,2,1.219A36.975,36.975,0,0,0,21.5,72.172a37.792,37.792,0,0,0,31.072,3.82,2.253,2.253,0,1,1,1.357,4.3A42.007,42.007,0,0,1,44.6,82.105h0l-.1.008h-.014l-.05,0h0l-.05,0H44.37l-.049,0h0l-.049,0h-.014l-.039,0H44.2l-.037,0h-.014l-.052,0h-.014l-.037,0h-.014l-.037,0h-.026l-.038,0h-.014l-.037,0h-.13l-.037,0h-.079l-.037,0h-.132l-.036,0H39.029l-.048,0h-.255l-.026,0h-.09l-.026,0h-.022l-.025,0h-.044l-.027,0H38.4l-.023,0-.024,0h-.021l-.026,0-.022,0-.023,0-.025,0h-.021l-.027,0-.021,0-.024,0-.023,0-.021,0-.026,0-.022,0-.024,0-.023,0-.02,0h0l-.026,0-.021,0-.021,0h0l-.022,0-.047,0-.021,0-.025,0-.022,0-.022,0-.025,0-.021,0-.026,0-.022,0-.023,0-.019,0h0l-.021,0-.026,0-.022,0-.024,0-.024,0-.042,0-.022,0-.025,0-.021,0h-.005l-.042,0-.022,0-.025,0-.021,0-.026,0h0l-.025,0-.021,0-.026,0-.022,0-.023,0-.024,0-.021,0-.026,0-.022,0-.023,0-.024,0-.021,0h0l-.026,0-.022,0-.025,0-.022,0-.042,0-.022,0-.025,0-.021,0-.026,0h0L36.7,82l-.02,0-.026,0-.021,0-.023,0-.024,0-.021,0-.025,0-.022,0-.023,0-.023,0-.02,0h0l-.026,0-.021,0-.025,0-.022,0-.021,0-.025,0-.017,0h0l-.025,0-.022,0-.041,0-.023,0-.024,0-.021,0-.026,0-.021,0-.023,0-.024,0-.022,0-.026,0-.02,0-.024,0-.023,0-.022,0-.025,0-.021,0H35.85l-.041-.005-.022,0h-.005l-.024,0-.023,0-.041-.005-.022,0h0l-.025,0-.022,0-.023,0-.024,0-.021,0-.025,0-.021,0-.023,0-.024,0-.02,0-.026,0-.021,0-.024,0-.023,0-.021,0-.026,0-.021,0-.025,0-.022,0-.021,0-.025,0-.015,0-.025,0-.021,0-.026,0-.02,0-.022,0-.025,0-.021,0-.026,0-.02,0-.023,0-.024,0-.021,0-.025,0-.021,0-.024,0-.023,0-.021,0-.025,0-.021,0-.025,0h0l-.026,0-.016,0h0l-.025,0-.022,0-.02,0h0l-.025,0-.021,0-.025,0-.015,0H34.5l-.023,0-.023,0-.02,0-.026,0-.021,0-.023,0-.023,0-.021,0-.025,0-.021,0-.024,0-.023,0-.019,0h0l-.026,0-.02,0-.025,0-.021,0-.02,0h0l-.024,0-.016,0h0l-.02,0-.021,0H34l-.02,0-.02,0-.023,0h0l-.02,0-.021,0h0l-.02,0-.021,0-.023,0h0l-.02,0-.02,0-.026,0h0l-.022,0-.02,0-.02,0-.021,0h-.005l-.02,0-.021,0-.025,0h0l-.024,0-.021,0-.02,0-.021,0h-.006l-.02,0-.02,0-.022,0h0l-.019,0-.021,0H33.4l-.02,0h0l-.018,0-.023,0h0l-.02,0-.021,0h-.005l-.02,0-.02,0h-.006l-.017,0h0l-.02,0-.021,0h-.005l-.019,0-.021,0h-.006l-.019,0h0l-.02,0-.021,0h-.005l-.02,0-.02,0h-.006l-.02,0h0l-.017,0-.023,0h0l-.02,0-.021,0H32.9l-.02,0-.02,0-.023,0h0l-.02,0h0l-.017,0h0l-.02,0h0l-.017,0h-.006l-.018,0h0l-.019,0-.021,0h0l-.02,0h0l-.016,0h-.006l-.018,0h0l-.02,0-.021,0h-.005l-.02,0h0l-.022,0-.019,0h0l-.018,0-.021,0h-.005l-.019,0-.021,0h-.006l-.019,0h0l-.016,0-.021,0h-.006l-.019,0-.021,0H32.3l-.019,0-.02,0-.023,0h0l-.019,0-.021,0h-.006l-.019,0-.02,0H32.14l-.016,0h0l-.019,0-.021,0h-.006l-.019,0h0l-.015,0H32.03l-.018,0h0l-.017,0-.021,0h-.006l-.019,0-.02,0h-.006l-.019,0h0l-.017,0h-.006l-.016,0h0l-.019,0-.02,0h-.006l-.019,0h0l-.017,0h-.006l-.016,0h0l-.019,0-.021,0H31.7l-.019,0h0l-.015,0-.007,0-.015,0h-.006l-.017,0-.007,0-.02,0-.019,0-.02,0-.007,0-.017,0h0l-.017,0-.021,0h-.006l-.018,0-.02,0-.006,0-.019,0h0l-.016,0-.021,0h-.006l-.019,0-.02,0-.007,0-.019,0h0l-.015,0-.021-.005h-.006l-.018,0-.02,0-.006,0-.018,0-.02,0-.007,0-.015,0h0l-.018,0-.02,0-.007,0-.018,0h-.006l-.014,0-.007,0-.017,0h0l-.018,0-.007,0L31,81H30.99l-.019,0-.006,0-.013,0-.007,0-.016,0-.007,0-.015,0-.007,0-.014,0H30.88l-.018,0-.006,0-.014,0-.007,0-.019,0h0l-.016,0-.006,0-.016,0h0l-.019,0-.007,0-.014,0-.006,0-.019,0h0l-.016,0-.006,0-.016,0h0l-.019,0-.006,0-.014,0-.006,0-.019,0h-.005l-.014,0-.008,0-.015,0H30.55l-.017,0-.006,0-.014,0-.006,0-.018,0-.007,0-.013,0-.007,0-.016,0-.006,0-.015,0-.02-.005-.007,0-.018,0-.02-.005-.007,0-.017,0-.006,0-.014,0-.008,0-.013,0-.006,0-.018,0-.019-.005-.008,0-.016,0-.02-.005-.021-.006-.008,0-.017,0-.007,0-.02-.005-.017,0-.019-.005-.021-.006-.009,0-.015,0-.02-.006-.007,0-.018,0-.019-.005-.008,0-.013,0-.01,0-.013,0-.008,0-.012,0-.007,0-.017,0L29.88,80.7l-.009,0-.016,0-.007,0-.014,0-.008,0-.012,0-.007,0-.018,0-.007,0-.012,0-.007,0-.016,0-.008,0-.012,0-.02-.006-.009,0-.015,0-.019-.006-.008,0-.017,0-.008,0-.011,0-.009,0-.012,0-.01,0-.014,0-.02-.006-.008,0-.017,0L29.51,80.6l-.009,0-.012,0-.011,0-.013,0-.019-.006-.009,0-.017,0-.019-.005-.009,0-.012,0-.023-.007-.02-.006-.008,0-.017,0-.019-.006-.009,0-.014,0-.011,0-.02-.006-.011,0-.012,0-.013,0-.009,0-.009,0-.01,0-.014,0-.012,0-.019-.006-.011,0-.01,0-.014,0-.009,0-.01,0-.009,0-.017-.005-.019-.006-.02-.006-.013,0-.012,0-.019-.006-.008,0-.017-.005-.019-.006-.009,0-.012,0-.011,0-.012,0-.008,0-.011,0-.008,0-.016,0-.009,0-.019-.006-.014,0-.01,0-.011,0-.019-.006-.008,0-.017-.005-.008,0-.011,0-.009,0-.017-.005-.007,0-.011,0-.02-.006-.011,0-.014,0-.008,0-.019-.006-.017-.005-.008,0-.012,0-.008,0-.013,0-.01,0-.013,0-.019-.006-.009,0-.016-.005-.019-.006-.009,0-.012,0-.012,0-.011,0-.019-.006-.009,0-.017-.005-.009,0-.01,0-.009,0-.013,0-.011,0-.011,0-.019-.006-.011,0-.014,0-.009,0-.009,0-.01,0-.011,0-.013,0-.019-.006-.009,0-.015,0-.01,0-.01,0-.008,0-.01,0-.01,0-.015,0-.018-.006-.01,0-.015,0-.009,0-.01,0-.009,0-.01,0L28,80.135l-.01,0-.008,0-.011,0-.009,0-.015,0-.01,0-.01,0-.009,0-.009,0-.016-.005-.01,0-.009,0-.01,0-.01,0-.014,0-.01,0-.018-.006-.018-.006-.008,0-.01,0-.008,0-.01,0-.009,0-.017-.006-.018-.006-.009,0-.016-.005-.009,0-.011,0-.007,0-.011,0-.008,0-.018-.006L27.609,80,27.6,80,27.586,80l-.01,0-.01,0-.008,0-.01,0-.014,0-.011,0-.008,0-.011,0-.007,0-.019-.006-.007,0-.011,0-.007,0-.011,0-.015-.005-.01,0-.008,0-.01,0-.008,0-.017-.006-.018-.006-.009,0-.013,0-.012,0-.01,0-.008,0-.01,0-.008,0-.017-.006-.018-.006-.009,0-.013,0-.012,0-.01,0-.007,0-.011,0-.007,0-.019-.007-.007,0-.017-.006-.019-.007-.008,0-.01,0-.008,0-.011,0-.006,0-.02-.007-.007,0-.011,0-.007,0-.018-.006-.007,0-.01,0-.008,0-.01,0h0l-.023-.008-.007,0-.011,0-.007,0-.02-.007-.006,0-.011,0-.007,0-.016-.006-.009,0-.011,0-.007,0-.011,0-.006,0-.021-.008,0,0-.012,0-.005,0-.024-.009h0l-.012,0-.006,0-.012,0h0l-.024-.009-.006,0-.012,0-.005,0-.023-.009h0l-.011,0-.007,0-.011,0h0l-.023-.009-.006,0-.011,0-.006,0-.021-.008-.005,0-.012,0-.006,0-.038-.014-.006,0-.012,0h0l-.024-.009h0l-.012,0-.006,0L26.4,79.57h0l-.011,0-.006,0-.012,0,0,0-.022-.008-.005,0-.012,0,0,0-.039-.015-.005,0-.012,0h0l-.026-.01,0,0-.012,0,0,0-.026-.01h0l-.012,0-.005,0-.012,0h0l-.025-.01h0l-.013-.005h0l-.026-.01h0l-.012,0-.005,0-.038-.015-.005,0-.012,0-.005,0-.021-.008-.006,0-.011,0-.006,0-.037-.014-.007,0-.011,0-.005,0-.022-.009,0,0-.012,0-.005,0-.038-.015,0,0-.012,0h0l-.025-.01h0l-.013,0,0,0-.039-.015,0,0-.039-.015,0,0-.012,0h0l-.04-.016h0l-.04-.016,0,0-.013-.005h0l-.042-.017h0l-.041-.016h0l-.014-.005h0l-.026-.011h0l-.013-.005h0l-.04-.016h0l-.013-.005h0l-.027-.011h0l-.013-.005h0l-.041-.017h0l-.04-.016h0L25.2,79.1h0l-.041-.017h0l-.041-.017h0l-.013-.006h0l-.041-.017h0l-.041-.017h0l-.013-.006h0L24.95,79h0l-.042-.017h0l-.043-.018h0l-.014-.006h0l-.043-.018h0l-.058-.024h0l-.043-.018h0l-.1-.043h0l-.145-.062h0L24.4,78.76h0a41.777,41.777,0,0,1-7.78-4.432h0L16.44,74.2h0l-.036-.026h0l-.036-.027h0l-.012-.009h0l-.034-.025,0,0L16.3,74.1h0l-.022-.016,0,0-.01-.007-.005,0-.033-.024,0,0-.034-.025,0,0-.011-.008,0,0-.022-.016h0l-.011-.008,0,0-.032-.024,0,0-.01-.007,0,0-.018-.013,0,0-.009-.007-.005,0-.031-.023-.006,0L16,73.876l-.005,0-.016-.012-.006,0-.009-.007-.006,0-.031-.023-.006,0-.009-.007-.006,0-.015-.011-.007-.005-.008-.006-.007-.005-.011-.008-.01-.008-.008-.006-.007-.005-.009-.006-.007-.005-.014-.011-.006,0-.009-.007-.006,0-.014-.011-.008-.006-.008-.006-.007-.005-.008-.006-.008-.006-.013-.01-.007-.005-.008-.006-.008-.006-.012-.009-.008-.006-.008-.006-.008-.006-.008-.006-.013-.01-.008-.006-.007-.006-.008-.006-.009-.007-.01-.008-.009-.007-.007-.006-.009-.007-.006,0-.014-.011-.007-.005-.008-.006-.007-.005-.01-.008-.009-.007L15.5,73.5l-.006,0-.01-.008-.005,0-.015-.011,0,0-.011-.008-.006,0-.014-.011,0,0-.012-.009-.006,0-.011-.008,0,0-.014-.011-.006,0-.01-.008-.005,0-.014-.011,0,0-.011-.009-.005,0-.012-.009,0,0-.014-.011,0,0-.012-.009,0,0-.015-.012,0,0-.011-.009-.006,0-.013-.01,0,0-.014-.011-.005,0-.011-.009,0,0-.015-.012,0,0-.011-.009,0,0-.015-.012,0,0-.013-.01,0,0-.012-.009,0,0-.015-.012,0,0-.012-.01,0,0-.015-.012h0l-.013-.011,0,0-.013-.01,0,0L15,73.1l0,0-.013-.01,0,0-.015-.012,0,0-.014-.011,0,0-.031-.025,0,0L14.9,73.02l0,0-.016-.013h0l-.015-.012,0,0-.031-.025,0,0-.014-.011h0l-.016-.013h0l-.015-.012,0,0-.032-.026,0,0-.016-.013h0l-.017-.013h0l-.015-.012h0l-.032-.026,0,0-.032-.026,0,0-.014-.012,0,0-.032-.026,0,0-.015-.013h0l-.016-.013,0,0-.015-.012h0l-.033-.027h0l-.032-.027h0l-.016-.013h0l-.017-.014h0l-.016-.014h0l-.033-.027h0l-.05-.041h0l-.033-.027h0l-.133-.112h0A41.374,41.374,0,0,1,4.046,59.775a2.254,2.254,0,0,1,2-3.288ZM41.2,0h1.878l.035,0h.115l.033,0h.117l.035,0h.131l.036,0h.1l.065,0h.1l.051,0h.084L44.062.1h.084l.065,0h.1l.066,0h.067l.1.008h.033l.033,0h0l.066.005h.083l.082.007h.067l.1.009h.034l.115.01.016,0,.016,0H45.2l.017,0h0l.1.009.016,0,.017,0,.017,0h0l.1.01.016,0,.016,0h0l.131.013h0l.033,0h0a41.967,41.967,0,0,1,7.875,1.6h0l.121.037h0l.014,0h0l.014,0h0l.014,0h0l.106.033h0l.014,0h0l.013,0h0l.014,0h0l.076.024h0l.014,0h0l.013,0h0l.013,0h0l.014,0h0L54.071,2h0l.014,0h0l.012,0h0l.013,0h0l.013,0h0l.014,0h0l.06.019h0l.014,0h0l.013,0h0l.013,0h0l.012,0h0l.013,0h0l.014,0h0l.06.02h0l.013,0h0l.011,0h0l.011,0h0l.012,0h0l.012,0h0l.014,0h0l.03.01h0l.014,0h0l.011,0,.015,0,.015,0,.015,0,0,0,.01,0,.005,0,.01,0,0,0,.013,0h0l.029.01h0l.01,0h0l.011,0,.015,0,.014,0,.015,0,.005,0,.01,0,0,0,.012,0h0l.015,0h0l.013,0h0l.011,0,.014,0,.014,0,.015,0,.015.005.015,0,.006,0,.009,0,.006,0,.013,0h0l.014,0,.014,0,.014,0,.015.005.014,0,.014,0,.015.005L55,2.307l.013,0,.032.011.013,0,.014,0,.014,0,.014,0,.015.005.014,0,.015.005.014.005h0l.037.013.012,0,.014.005,0,0,.01,0h0l.01,0h0l.011,0h0l.011,0h0l.067.024h0l.013,0h0l.012,0h0l.011,0h0l.012,0h0l.094.034h0l.013,0h0l.013,0h0l.013,0h0l.431.159a41.753,41.753,0,0,1,6.38,3.022h0l.122.071h0l.11.064h0l.011.007h0l.011.007h0l.011.007h0l.084.05h0l.011.007h0l.01.006h0l.01.006,0,0,.01.006h0l.083.05h0l.01.006h0l.01.006,0,0,.01.006h0l.01.006,0,0,.043.026,0,0,.008.005,0,0,.008,0,0,0,.008,0,0,0,.008,0,0,0L63,6.06l0,0,.009.005,0,0,.009.005h0l.042.026,0,0,.007,0,.006,0,.007,0,.006,0,.007,0,.006,0,.006,0,.007,0,.006,0,.007,0,.006,0,.006,0,.006,0,.008,0,.005,0,.013.008,0,0,.008,0,.006,0,.007,0,.006,0,.007,0,.005,0,.008,0,.005,0,.007,0,.006,0,.006,0,.006,0,.008,0,0,0,.011.007h0l.026.016h0l.012.008h0l.01.006,0,0,.009.005,0,0,.008.005,0,0,.009.006,0,0,.009.006,0,0,.01.006,0,0,.026.016h0l.012.007,0,0,.01.006,0,0,.01.006,0,0,.01.006,0,0,.011.007h0l.012.007h0l.066.041h0l.013.008h0l.013.008h0l.012.008h0l.012.008h0l.013.008h0l.079.05h0l.013.008h0A41.5,41.5,0,0,1,78.546,22.831h0l.007.013h0l.056.111h0l.056.112h0l.006.013v0l.006.012v0l.006.012h0l.006.013h0l.041.083h0l.006.013h0l.006.012v0l.006.012v0l.027.056h0l.007.014h0l.006.013h0l.006.012v0l.006.012h0l.006.013h0l.04.083v0l.006.012h0l.006.012v0l.005.011,0,0,.005.011v0l.006.012v0l.027.056h0l.006.013v0l.005.011v0l.005.011,0,0,.005.011v0l.006.012v0l.026.055v0l.005.011v0l0,.01,0,0,0,.009,0,0,.005.011v0l.006.012v0l.006.012v0l.02.042v0l.005.012,0,0,0,.01,0,0,0,.01,0,0,0,.01,0,0,0,.01,0,0,.005.011v0l.006.012v0l.013.028v0l.005.011v0l.005.011,0,0,0,.009,0,0,0,.009,0,.005,0,.01,0,0,0,.01,0,0,.006.012h0l.013.028h0l.006.013v0l.005.011,0,0,0,.01,0,0,0,.01,0,0,0,.01,0,0,0,.01v0l0,.01,0,0,.006.013h0l.006.014h0l.006.013v0l0,.011,0,0,0,.01,0,0,0,.009,0,0,0,.01,0,0,0,.009,0,.005,0,.009,0,0,0,.011v0l.012.027,0,0,0,.01,0,0,0,.01,0,.005,0,.008,0,.006,0,.007,0,.007,0,.007,0,.006,0,.008,0,.006,0,.009,0,0,0,.01,0,0,.006.014v0l0,.01,0,.006,0,.008,0,.006,0,.007,0,.007,0,.008,0,.006,0,.008,0,.006,0,.008,0,.006,0,.008,0,.006,0,.009,0,0,.006.013,0,0,0,.009,0,.006,0,.007,0,.007,0,.006,0,.007,0,.007,0,.007,0,.007,0,.006,0,.008,0,.006,0,.007,0,.006,0,.008,0,.006.012.027,0,.007,0,.007,0,.005,0,.008,0,.005,0,.009,0,.006,0,.007,0,.007,0,.007,0,.007,0,.007,0,.007,0,.006,0,.008,0,0,.013.03,0,.006,0,.008,0,.006,0,.008,0,.006,0,.008,0,.005,0,.008,0,.006,0,.008,0,.006,0,.008,0,.006,0,.008,0,.006,0,.008,0,.005.008.019v0l0,.01v0l0,.009,0,0,0,.009,0,0,0,.01,0,0,0,.009,0,0,0,.01,0,0,0,.01v0l.021.049h0l0,.01,0,0,0,.009,0,0,0,.008,0,.005,0,.009,0,0,0,.009,0,0,0,.009v0l0,.01v0l.016.038h0l0,.01,0,0,0,.01v0l0,.01v0l0,.01,0,0,0,.01,0,0,0,.009,0,0,0,.01v0l.02.048v0l0,.011v0l0,.01,0,0,0,.009,0,0,0,.009,0,0,0,.01v0l0,.01v0l.02.049h0l0,.01v0l0,.009,0,0,0,.009,0,.005,0,.008,0,.006,0,.008,0,0,0,.009v0l0,.01h0l.02.05v0l0,.01,0,0,0,.009,0,0,0,.009,0,0,0,.009,0,0,0,.009,0,0,0,.01v0l0,.011h0l.009.021,0,0,0,.011v0l0,.01,0,0,0,.009,0,0,0,.009,0,0,0,.009,0,0,0,.01v0l0,.011h0l.025.063v0l0,.011v0l0,.011v0l0,.011v0l0,.01v0l0,.01v0l0,.011h0l.02.051v0l0,.011v0l0,.011v0l0,.01v0l0,.01v0l0,.011v0l0,.011v0l.02.051h0l0,.012v0l0,.011v0l0,.011v0l0,.011v0l0,.011v0l0,.011v0l.025.064h0l0,.011v0l0,.011v0l0,.011v0l0,.011v0l0,.011v0l.03.078h0l0,.012h0l0,.011v0l0,.011v0l0,.012h0l.029.076v0l0,.01v0l0,.011v0l0,.011v0l0,.012v0l0,.012h0l.029.078h0l0,.012v0l0,.012h0l0,.012v0l0,.012h0l0,.013h0l.03.08h0l0,.013h0l0,.012v0l0,.012h0l.029.079h0l0,.011v0l0,.01v0l0,.011v0l0,.011v0l0,.011v0l.028.078h0l0,.013h0l0,.012v0l0,.012v0l0,.012v0l0,.012h0l.024.066v0l0,.012h0l0,.011v0l0,.012h0l0,.012h0l.028.079h0l0,.012v0l0,.011v0l0,.011v0l0,.012v0l0,.012v0l.023.066h0l0,.013h0l0,.013h0l0,.013h0l0,.013h0l.037.107h0l0,.013h0l0,.013h0l0,.013h0l.037.107h0l0,.012v0l0,.012h0l0,.013h0l.027.08h0l.009.026h0l0,.013h0l0,.013h0l.036.107h0l0,.013h0l0,.013h0l.036.107h0l0,.012h0l0,.012v0l0,.012h0l.031.093h0l0,.012h0l0,.012v0l0,.012h0l0,.013h0l.035.108h0l.034.108h0l0,.013h0l0,.012v0l0,.012v0l0,.012v0l.03.094h0l0,.012v0l0,.012h0l0,.013h0l.025.08h0l0,.012v0l0,.012v0l0,.012v0l0,.011v0l0,.012h0l0,.013h0l.021.067h0l0,.011v0l0,.011v0l0,.011v0l0,.01v0l0,.01v0l.02.066h0l0,.013v0l0,.012v0l0,.011v0l0,.011v0l0,.012v0l.023.078v0l0,.01v0l0,.011v0l0,.01v0l0,.011v0l0,.011h0l.02.066v0l0,.011v0l0,.011v0l0,.011v0l0,.011v0l0,.011v0l0,.012h0l.015.052v0l0,.012v0l0,.011v0l0,.011v0l0,.011v0l0,.012h0l.023.081v0l0,.011v0l0,.01v0l0,.011v0l0,.011v0l0,.011v0l.014.051v0l0,.011v0l0,.011v0l0,.01v0l0,.01v0l0,.01v0l0,.01v0l0,.01v0l.011.038h0l0,.011v0l0,.01v0l0,.01v0l0,.01v0l0,.01v0l0,.01v0l0,.011h0l.018.066v0l0,.01v0l0,.009,0,.006,0,.009v0l0,.01v0l0,.01v0l0,.011v0l.011.039h0l0,.01v0l0,.009v.005l0,.009v.005l0,.009v.005l0,.009,0,.006,0,.009v0l0,.01v0l.008.03,0,.008,0,.008,0,.007,0,.008,0,.006,0,.008,0,.007,0,.008,0,.006,0,.008,0,.006,0,.008,0,.006,0,.009,0,.006,0,.009v0l.009.034v.006l0,.009,0,.006,0,.008,0,.007,0,.008,0,.006,0,.008,0,.006,0,.009v.006l0,.009,0,.006,0,.009,0,.006,0,.009v0l0,.017,0,.007,0,.007,0,.008,0,.007,0,.008,0,.007,0,.007,0,.008,0,.007,0,.007,0,.008,0,.006,0,.01v.005l0,.01v0l.008.03v0l0,.011v.005l0,.009,0,.006,0,.009v.006l0,.009v.006l0,.009v.005l0,.01v.005l0,.011v0l0,.015h0l0,.015v0l0,.011v.006l0,.009v.006l0,.009v.006l0,.009v.006l0,.009v.006l0,.01v.005l0,.01v.005l0,.011v0l0,.015v0l0,.01v.006l0,.009v.006l0,.009v.005l0,.01V31.4l0,.01v.005l0,.01v0l0,.011v0l0,.012v0l.007.03h0l0,.015v0l0,.013v0l0,.011v0l0,.011v0l0,.011v0l0,.01v0l0,.012v0l.011.045v0l0,.012v0l0,.012v0l0,.011v0l0,.011v0l0,.012v0l0,.013v0l.014.061v0l0,.012v0l0,.011v0l0,.011v0l0,.011v0l0,.012v0l.018.077h0l0,.014v0l0,.013v0l0,.013v0l0,.014v0l.014.062h0l0,.015h0l0,.014v0l0,.014h0l0,.014v0l0,.014h0l.024.108v0l0,.014h0l0,.015h0l.027.124h0l.03.141h0l0,.015h0l.026.125h0q.207.983.366,1.982a2.253,2.253,0,0,1-4.451.7A36.477,36.477,0,0,0,65.5,13.4a37.162,37.162,0,0,0-11.1-6.528A37.536,37.536,0,0,0,41.2,4.506h0A37.3,37.3,0,0,0,19.555,11.35a2.253,2.253,0,0,1-2.6-3.68h0l.007,0,0,0,.008-.006h0l.019-.013h0L17,7.636l0,0,.008-.006,0,0,.028-.02h0l.009-.006h0l.039-.027h0l.009-.007h0l.009-.006h0l.039-.027h0l.039-.027h0A41.769,41.769,0,0,1,27.3,2.344h0l.106-.037h0l.058-.02h0l.046-.016h0l.011,0h0l.046-.016h0l.011,0h0l.046-.016h0l.045-.015h0l.01,0h0l.046-.015h0l.011,0h0l.047-.016h0l.046-.016h0l.011,0h0l.046-.015h0l.011,0h0l.045-.015h0l.011,0h0l.034-.011.013,0h0l.033-.011h0l.011,0h0l.011,0h0l.034-.011h0l.011,0h0l.045-.015.013,0h0l.035-.011h0l.013,0,.013,0,.031-.01.012,0h0l.045-.014.013,0h0l.034-.011h0l.011,0h0l.013,0,.033-.01.012,0h0l.01,0h0l.034-.011.012,0h0l.046-.014h0l.013,0,.033-.01.012,0,.013,0h0l.032-.01.013,0h0l.034-.011h0l.011,0h0l.011,0h0l.035-.011h0l.011,0h0l.045-.014.013,0h0l.033-.01h0l.014,0,.013,0,.032-.01.012,0,.013,0h0L29,1.79h0l.014,0,.013,0,.012,0,.018-.006.012,0,.013,0h0l.029-.009.013,0,.014,0,.007,0,.013,0,.014,0,.014,0,.013,0,.006,0,.015,0,.013,0,.013,0h0l.031-.009.012,0,.013,0h0l.02-.006h0l.014,0,.013,0,.014,0,.013,0,.007,0,.013,0,.014,0,.012,0,.017,0,.013,0,.014,0h0l.018-.005h0l.014,0,.013,0,.012,0,.019-.005.012,0,.013,0,.006,0,.029-.008.013,0,.014,0h0l.02-.006h0l.014,0,.014,0,.013,0,.014,0,.013,0,.014,0,.014,0,.006,0,.015,0,.013,0,.014,0,.006,0,.017,0h0l.014,0,.014,0,.015,0,.018-.005.014,0,.014,0,.014,0,.019-.005.015,0L30,1.5l.016,0h0l.014,0,.013,0,.013,0,.015,0,.014,0,.014,0,.014,0,.02-.005.014,0,.014,0,.013,0,.013,0,.014,0,.013,0,.014,0,.015,0,.013,0,.013,0h.006l.029-.008.013,0,.014,0,.018,0,.014,0,.015,0,.014,0,.018,0,.015,0,.014,0,.014,0,.013,0,.014,0,.014,0,.015,0h.005l.013,0,.015,0,.015,0,.016,0,.017,0,.014,0,.014,0,.007,0,.013,0,.014,0,.015,0,.014,0,.02-.005.014,0,.014,0,.007,0,.007,0,.02,0,.013,0,.014,0,.028-.007.014,0,.014,0,.013,0,.02-.005.014,0,.014,0,.007,0,.02,0,.014,0,.015,0h.006l.013,0,.014,0,.014,0,.014,0,.02-.005.015,0,.014,0,.015,0,.019,0,.014,0,.015,0h.005l.014,0,.014,0,.015,0,.016,0h0l.013,0,.015,0,.015,0,.016,0,.016,0,.014,0,.015,0h.005l.014,0,.014,0,.015,0h0l.012,0h0l.014,0,.014,0,.014,0,.017,0h0l.013,0,.014,0,.015,0h0l.014,0,.014,0,.014,0,.018,0h0l.014,0,.014,0,.015,0H31.6l.012,0h0l.012,0,.015,0,.015,0h.006l.013,0,.014,0,.015,0,.015,0h0l.014,0,.015,0,.014,0,.015,0,.018,0,.014,0,.015,0,.007,0,.013,0,.014,0,.014,0,.015,0H31.9l.013,0,.015,0,.015,0,.017,0,.016,0,.015,0,.015,0h.006l.013,0,.014,0,.015,0,.015,0h0l.014,0,.015,0,.016,0h0l.029-.006.014,0,.016,0h0l.014,0,.014,0,.014,0,.016,0h0l.014,0,.014,0,.014,0,.016,0,.018,0,.015,0,.015,0,.019,0,.014,0,.015,0,.015,0,.019,0,.015,0,.015,0,.017,0L32.5.9l.015,0,.015,0,.019,0,.014,0,.015,0,.016,0,.017,0,.015,0,.015,0,.017,0,.016,0,.015,0,.016,0,.018,0,.014,0,.015,0,.016,0,.017,0,.014,0,.015,0,.017,0,.017,0,.014,0,.016,0,.019,0,.014,0,.015,0,.018,0h0l.018,0,.016,0,.015,0,.015,0,.019,0,.015,0,.015,0,.018,0,.016,0,.015,0,.015,0,.018,0,.016,0,.015,0,.016,0,.018,0,.015,0,.014,0,.018,0,.017,0,.015,0,.014,0,.019,0,.015,0,.014,0,.03-.006.015,0,.016,0,.018,0h0l.018,0,.015,0,.015,0,.017,0,.017,0,.015,0,.03-.006.014,0,.016,0h0l.03-.005.015,0,.019,0h0l.018,0,.016,0,.015,0,.03-.005.015,0,.015,0h0l.03-.005.015,0,.015,0,.018,0,.015,0,.016,0,.018,0,.016,0,.015,0,.017,0h0l.031-.005.015,0,.017,0h0l.018,0,.016,0,.015,0L34.08.6,34.1.6l.016,0h0l.03-.005.016,0,.017,0,.017,0,.014,0,.016,0h0l.03-.005.014,0,.016,0,.018,0,.015,0,.015,0,.018,0h0l.017,0,.017,0,.015,0,.03,0,.015,0,.016,0h0l.031,0,.016,0,.017,0h0l.016,0h0l.017,0,.016,0,.032,0h0l.017,0,.014,0h0l.031,0,.015,0,.018,0h0l.018,0,.016,0,.015,0,.03,0,.015,0,.015,0,.019,0,.014,0,.016,0,.017,0,.017,0,.015,0,.016,0h0l.031,0,.014,0,.016,0h0l.03,0,.015,0,.018,0h0l.018,0,.017,0,.016,0,.03,0,.015,0,.016,0,.018,0,.015,0,.016,0,.016,0,.018,0,.015,0,.016,0h0l.031,0,.015,0,.017,0h0l.031,0,.015,0h0l.031,0,.015,0h0l.015,0,.03,0,.016,0,.016,0h0l.031,0,.016,0,.016,0,.017,0,.015,0,.016,0h0l.03,0,.015,0,.016,0h0l.03,0,.015,0h0l.031,0,.015,0,.015,0,.018,0,.016,0,.015,0,.015,0,.019,0,.015,0,.016,0,.017,0,.018,0,.015,0,.016,0,.018,0,.016,0,.015,0,.016,0h0l.031,0,.015,0,.018,0h0l.018,0,.017,0,.015,0,.031,0,.015,0,.016,0h0l.031,0,.016,0,.017,0,.017,0,.015,0,.016,0h0l.031,0,.015,0,.017,0h0l.031,0,.015,0h0l.031,0,.015,0,.016,0h0l.031,0,.016,0,.016,0h0l.031,0,.016,0,.016,0,.018,0,.015,0,.016,0,.017,0,.017,0,.015,0,.016,0,.019,0,.015,0,.016,0,.017,0,.017,0,.015,0,.016,0,.016,0,.018,0,.015,0,.016,0,.034,0,.016,0,.016,0,.018,0h.03L37.1.2l.017,0h.015l.016,0,.02,0h.03l.017,0,.018,0h.031l.018,0,.016,0h.031l.019,0H37.4l.018,0h.047l.019,0h.031l.034,0h.032l.018,0h.031l.018,0H37.7l.034,0h.085l.032,0h.034l.034,0h.148l.035,0h.147l.034,0h.082l.034,0h.032l.034,0h.148l.035,0H41.2Z" transform="translate(150.316 67.76)" fill="#fff"/>
  </g>
</svg>
