<svg xmlns="http://www.w3.org/2000/svg" width="143.088" height="82.24" viewBox="0 0 143.088 82.24">
  <g id="Group_20" data-name="Group 20" transform="translate(-154.111 -67.76)">
    <text id="Haya" transform="translate(168.199 124.76)" fill="#fff" font-size="52" font-family="CFTommorowToysDemo-Regular, CF Tommorow Toys Demo"><tspan x="0" y="0">Haya</tspan></text>
    <path id="Ellipse_32" data-name="Ellipse 32" d="M6.046,56.487a2.253,2.253,0,0,1,2,1.219A36.975,36.975,0,0,0,21.5,72.172a37.792,37.792,0,0,0,31.072,3.82,2.253,2.253,0,1,1,1.357,4.3A42.007,42.007,0,0,1,44.6,82.105h0l-.1.008h-.014l-.05,0h0l-.05,0H44.37l-.049,0h0l-.049,0h-.014l-.039,0H44.2l-.037,0h-.014l-.052,0h-.014l-.037,0h-.014l-.037,0h-.026l-.038,0h-.014l-.037,0h-.13l-.037,0h-.079l-.037,0h-.132l-.036,0H39.029l-.048,0h-.255l-.026,0h-.09l-.026,0h-.022l-.025,0h-.044l-.027,0H38.4l-.023,0-.024,0h-.021l-.026,0-.022,0-.023,0-.025,0h-.021l-.027,0-.021,0-.024,0-.023,0-.021,0-.026,0-.022,0-.024,0-.023,0-.02,0h0l-.026,0-.021,0-.021,0h0l-.022,0-.047,0-.021,0-.025,0-.022,0-.022,0-.025,0-.021,0-.026,0-.022,0-.023,0-.019,0h0l-.021,0-.026,0-.022,0-.024,0-.024,0-.042,0-.022,0-.025,0-.021,0h-.005l-.042,0-.022,0-.025,0-.021,0-.026,0h0l-.025,0-.021,0-.026,0-.022,0-.023,0-.024,0-.021,0-.026,0-.022,0-.023,0-.024,0-.021,0h0l-.026,0-.022,0-.025,0-.022,0-.042,0-.022,0-.025,0-.021,0-.026,0h0L36.7,82l-.02,0-.026,0-.021,0-.023,0-.024,0-.021,0-.025,0-.022,0-.023,0-.023,0-.02,0h0l-.026,0-.021,0-.025,0-.022,0-.021,0-.025,0-.017,0h0l-.025,0-.022,0-.041,0-.023,0-.024,0-.021,0-.026,0-.021,0-.023,0-.024,0-.022,0-.026,0-.02,0-.024,0-.023,0-.022,0-.025,0-.021,0H35.85l-.041-.005-.022,0h-.005l-.024,0-.023,0-.041-.005-.022,0h0l-.025,0-.022,0-.023,0-.024,0-.021,0-.025,0-.021,0-.023,0-.024,0-.02,0-.026,0-.021,0-.024,0-.023,0-.021,0-.026,0-.021,0-.025,0-.022,0-.021,0-.025,0-.015,0-.025,0-.021,0-.026,0-.02,0-.022,0-.025,0-.021,0-.026,0-.02,0-.023,0-.024,0-.021,0-.025,0-.021,0-.024,0-.023,0-.021,0-.025,0-.021,0-.025,0h0l-.026,0-.016,0h0l-.025,0-.022,0-.02,0h0l-.025,0-.021,0-.025,0-.015,0H34.5l-.023,0-.023,0-.02,0-.026,0-.021,0-.023,0-.023,0-.021,0-.025,0-.021,0-.024,0-.023,0-.019,0h0l-.026,0-.02,0-.025,0-.021,0-.02,0h0l-.024,0-.016,0h0l-.02,0-.021,0H34l-.02,0-.02,0-.023,0h0l-.02,0-.021,0h0l-.02,0-.021,0-.023,0h0l-.02,0-.02,0-.026,0h0l-.022,0-.02,0-.02,0-.021,0h-.005l-.02,0-.021,0-.025,0h0l-.024,0-.021,0-.02,0-.021,0h-.006l-.02,0-.02,0-.022,0h0l-.019,0-.021,0H33.4l-.02,0h0l-.018,0-.023,0h0l-.02,0-.021,0h-.005l-.02,0-.02,0h-.006l-.017,0h0l-.02,0-.021,0h-.005l-.019,0-.021,0h-.006l-.019,0h0l-.02,0-.021,0h-.005l-.02,0-.02,0h-.006l-.02,0h0l-.017,0-.023,0h0l-.02,0-.021,0H32.9l-.02,0-.02,0-.023,0h0l-.02,0h0l-.017,0h0l-.02,0h0l-.017,0h-.006l-.018,0h0l-.019,0-.021,0h0l-.02,0h0l-.016,0h-.006l-.018,0h0l-.02,0-.021,0h-.005l-.02,0h0l-.022,0-.019,0h0l-.018,0-.021,0h-.005l-.019,0-.021,0h-.006l-.019,0h0l-.016,0-.021,0h-.006l-.019,0-.021,0H32.3l-.019,0-.02,0-.023,0h0l-.019,0-.021,0h-.006l-.019,0-.02,0H32.14l-.016,0h0l-.019,0-.021,0h-.006l-.019,0h0l-.015,0H32.03l-.018,0h0l-.017,0-.021,0h-.006l-.019,0-.02,0h-.006l-.019,0h0l-.017,0h-.006l-.016,0h0l-.019,0-.02,0h-.006l-.019,0h0l-.017,0h-.006l-.016,0h0l-.019,0-.021,0H31.7l-.019,0h0l-.015,0-.007,0-.015,0h-.006l-.017,0-.007,0-.02,0-.019,0-.02,0-.007,0-.017,0h0l-.017,0-.021,0h-.006l-.018,0-.02,0-.006,0-.019,0h0l-.016,0-.021,0h-.006l-.019,0-.02,0-.007,0-.019,0h0l-.015,0-.021-.005h-.006l-.018,0-.02,0-.006,0-.018,0-.02,0-.007,0-.015,0h0l-.018,0-.02,0-.007,0-.018,0h-.006l-.014,0-.007,0-.017,0h0l-.018,0-.007,0L31,81H30.99l-.019,0-.006,0-.013,0-.007,0-.016,0-.007,0-.015,0-.007,0-.014,0H30.88l-.018,0-.006,0-.014,0-.007,0-.019,0h0l-.016,0-.006,0-.016,0h0l-.019,0-.007,0-.014,0-.006,0-.019,0h0l-.016,0-.006,0-.016,0h0l-.019,0-.006,0-.014,0-.006,0-.019,0h-.005l-.014,0-.008,0-.015,0H30.55l-.017,0-.006,0-.014,0-.006,0-.018,0-.007,0-.013,0-.007,0-.016,0-.006,0-.015,0-.02-.005-.007,0-.018,0-.02-.005-.007,0-.017,0-.006,0-.014,0-.008,0-.013,0-.006,0-.018,0-.019-.005-.008,0-.016,0-.02-.005-.021-.006-.008,0-.017,0-.007,0-.02-.005-.017,0-.019-.005-.021-.006-.009,0-.015,0-.02-.006-.007,0-.018,0-.019-.005-.008,0-.013,0-.01,0-.013,0-.008,0-.012,0-.007,0-.017,0L29.88,80.7l-.009,0-.016,0-.007,0-.014,0-.008,0-.012,0-.007,0-.018,0-.007,0-.012,0-.007,0-.016,0-.008,0-.012,0-.02-.006-.009,0-.015,0-.019-.006-.008,0-.017,0-.008,0-.011,0-.009,0-.012,0-.01,0-.014,0-.02-.006-.008,0-.017,0L29.51,80.6l-.009,0-.012,0-.011,0-.013,0-.019-.006-.009,0-.017,0-.019-.005-.009,0-.012,0-.023-.007-.02-.006-.008,0-.017,0-.019-.006-.009,0-.014,0-.011,0-.02-.006-.011,0-.012,0-.013,0-.009,0-.009,0-.01,0-.014,0-.012,0-.019-.006-.011,0-.01,0-.014,0-.009,0-.01,0-.009,0-.017-.005-.019-.006-.02-.006-.013,0-.012,0-.019-.006-.008,0-.017-.005-.019-.006-.009,0-.012,0-.011,0-.012,0-.008,0-.011,0-.008,0-.016,0-.009,0-.019-.006-.014,0-.01,0-.011,0-.019-.006-.008,0-.017-.005-.008,0-.011,0-.009,0-.017-.005-.007,0-.011,0-.02-.006-.011,0-.014,0-.008,0-.019-.006-.017-.005-.008,0-.012,0-.008,0-.013,0-.01,0-.013,0-.019-.006-.009,0-.016-.005-.019-.006-.009,0-.012,0-.012,0-.011,0-.019-.006-.009,0-.017-.005-.009,0-.01,0-.009,0-.013,0-.011,0-.011,0-.019-.006-.011,0-.014,0-.009,0-.009,0-.01,0-.011,0-.013,0-.019-.006-.009,0-.015,0-.01,0-.01,0-.008,0-.01,0-.01,0-.015,0-.018-.006-.01,0-.015,0-.009,0-.01,0-.009,0-.01,0L28,80.135l-.01,0-.008,0-.011,0-.009,0-.015,0-.01,0-.01,0-.009,0-.009,0-.016-.005-.01,0-.009,0-.01,0-.01,0-.014,0-.01,0-.018-.006-.018-.006-.008,0-.01,0-.008,0-.01,0-.009,0-.017-.006-.018-.006-.009,0-.016-.005-.009,0-.011,0-.007,0-.011,0-.008,0-.018-.006L27.609,80,27.6,80,27.586,80l-.01,0-.01,0-.008,0-.01,0-.014,0-.011,0-.008,0-.011,0-.007,0-.019-.006-.007,0-.011,0-.007,0-.011,0-.015-.005-.01,0-.008,0-.01,0-.008,0-.017-.006-.018-.006-.009,0-.013,0-.012,0-.01,0-.008,0-.01,0-.008,0-.017-.006-.018-.006-.009,0-.013,0-.012,0-.01,0-.007,0-.011,0-.007,0-.019-.007-.007,0-.017-.006-.019-.007-.008,0-.01,0-.008,0-.011,0-.006,0-.02-.007-.007,0-.011,0-.007,0-.018-.006-.007,0-.01,0-.008,0-.01,0h0l-.023-.008-.007,0-.011,0-.007,0-.02-.007-.006,0-.011,0-.007,0-.016-.006-.009,0-.011,0-.007,0-.011,0-.006,0-.021-.008,0,0-.012,0-.005,0-.024-.009h0l-.012,0-.006,0-.012,0h0l-.024-.009-.006,0-.012,0-.005,0-.023-.009h0l-.011,0-.007,0-.011,0h0l-.023-.009-.006,0-.011,0-.006,0-.021-.008-.005,0-.012,0-.006,0-.038-.014-.006,0-.012,0h0l-.024-.009h0l-.012,0-.006,0L26.4,79.57h0l-.011,0-.006,0-.012,0,0,0-.022-.008-.005,0-.012,0,0,0-.039-.015-.005,0-.012,0h0l-.026-.01,0,0-.012,0,0,0-.026-.01h0l-.012,0-.005,0-.012,0h0l-.025-.01h0l-.013-.005h0l-.026-.01h0l-.012,0-.005,0-.038-.015-.005,0-.012,0-.005,0-.021-.008-.006,0-.011,0-.006,0-.037-.014-.007,0-.011,0-.005,0-.022-.009,0,0-.012,0-.005,0-.038-.015,0,0-.012,0h0l-.025-.01h0l-.013,0,0,0-.039-.015,0,0-.039-.015,0,0-.012,0h0l-.04-.016h0l-.04-.016,0,0-.013-.005h0l-.042-.017h0l-.041-.016h0l-.014-.005h0l-.026-.011h0l-.013-.005h0l-.04-.016h0l-.013-.005h0l-.027-.011h0l-.013-.005h0l-.041-.017h0l-.04-.016h0L25.2,79.1h0l-.041-.017h0l-.041-.017h0l-.013-.006h0l-.041-.017h0l-.041-.017h0l-.013-.006h0L24.95,79h0l-.042-.017h0l-.043-.018h0l-.014-.006h0l-.043-.018h0l-.058-.024h0l-.043-.018h0l-.1-.043h0l-.145-.062h0L24.4,78.76h0a41.777,41.777,0,0,1-7.78-4.432h0L16.44,74.2h0l-.036-.026h0l-.036-.027h0l-.012-.009h0l-.034-.025,0,0L16.3,74.1h0l-.022-.016,0,0-.01-.007-.005,0-.033-.024,0,0-.034-.025,0,0-.011-.008,0,0-.022-.016h0l-.011-.008,0,0-.032-.024,0,0-.01-.007,0,0-.018-.013,0,0-.009-.007-.005,0-.031-.023-.006,0L16,73.876l-.005,0-.016-.012-.006,0-.009-.007-.006,0-.031-.023-.006,0-.009-.007-.006,0-.015-.011-.007-.005-.008-.006-.007-.005-.011-.008-.01-.008-.008-.006-.007-.005-.009-.006-.007-.005-.014-.011-.006,0-.009-.007-.006,0-.014-.011-.008-.006-.008-.006-.007-.005-.008-.006-.008-.006-.013-.01-.007-.005-.008-.006-.008-.006-.012-.009-.008-.006-.008-.006-.008-.006-.008-.006-.013-.01-.008-.006-.007-.006-.008-.006-.009-.007-.01-.008-.009-.007-.007-.006-.009-.007-.006,0-.014-.011-.007-.005-.008-.006-.007-.005-.01-.008-.009-.007L15.5,73.5l-.006,0-.01-.008-.005,0-.015-.011,0,0-.011-.008-.006,0-.014-.011,0,0-.012-.009-.006,0-.011-.008,0,0-.014-.011-.006,0-.01-.008-.005,0-.014-.011,0,0-.011-.009-.005,0-.012-.009,0,0-.014-.011,0,0-.012-.009,0,0-.015-.012,0,0-.011-.009-.006,0-.013-.01,0,0-.014-.011-.005,0-.011-.009,0,0-.015-.012,0,0-.011-.009,0,0-.015-.012,0,0-.013-.01,0,0-.012-.009,0,0-.015-.012,0,0-.012-.01,0,0-.015-.012h0l-.013-.011,0,0-.013-.01,0,0L15,73.1l0,0-.013-.01,0,0-.015-.012,0,0-.014-.011,0,0-.031-.025,0,0L14.9,73.02l0,0-.016-.013h0l-.015-.012,0,0-.031-.025,0,0-.014-.011h0l-.016-.013h0l-.015-.012,0,0-.032-.026,0,0-.016-.013h0l-.017-.013h0l-.015-.012h0l-.032-.026,0,0-.032-.026,0,0-.014-.012,0,0-.032-.026,0,0-.015-.013h0l-.016-.013,0,0-.015-.012h0l-.033-.027h0l-.032-.027h0l-.016-.013h0l-.017-.014h0l-.016-.014h0l-.033-.027h0l-.05-.041h0l-.033-.027h0l-.133-.112h0A41.374,41.374,0,0,1,4.046,59.775a2.254,2.254,0,0,1,2-3.288ZM41.2,0h1.878l.035,0h.115l.033,0h.117l.035,0h.131l.036,0h.1l.065,0h.1l.051,0h.084L44.062.1h.084l.065,0h.1l.066,0h.067l.1.008h.033l.033,0h0l.066.005h.083l.082.007h.067l.1.009h.034l.115.01.016,0,.016,0H45.2l.017,0h0l.1.009.016,0,.017,0,.017,0h0l.1.01.016,0,.016,0h0l.131.013h0l.033,0h0a41.967,41.967,0,0,1,7.875,1.6h0l.121.037h0l.014,0h0l.014,0h0l.014,0h0l.106.033h0l.014,0h0l.013,0h0l.014,0h0l.076.024h0l.014,0h0l.013,0h0l.013,0h0l.014,0h0L54.071,2h0l.014,0h0l.012,0h0l.013,0h0l.013,0h0l.014,0h0l.06.019h0l.014,0h0l.013,0h0l.013,0h0l.012,0h0l.013,0h0l.014,0h0l.06.02h0l.013,0h0l.011,0h0l.011,0h0l.012,0h0l.012,0h0l.014,0h0l.03.01h0l.014,0h0l.011,0,.015,0,.015,0,.015,0,0,0,.01,0,.005,0,.01,0,0,0,.013,0h0l.029.01h0l.01,0h0l.011,0,.015,0,.014,0,.015,0,.005,0,.01,0,0,0,.012,0h0l.015,0h0l.013,0h0l.011,0,.014,0,.014,0,.015,0,.015.005.015,0,.006,0,.009,0,.006,0,.013,0h0l.014,0,.014,0,.014,0,.015.005.014,0,.014,0,.015.005L55,2.307l.013,0,.032.011.013,0,.014,0,.014,0,.014,0,.015.005.014,0,.015.005.014.005h0l.037.013.012,0,.014.005,0,0,.01,0h0l.01,0h0l.011,0h0l.011,0h0l.067.024h0l.013,0h0l.012,0h0l.011,0h0l.012,0h0l.094.034h0l.013,0h0l.013,0h0l.013,0h0l.431.159a41.753,41.753,0,0,1,6.38,3.022h0l.122.071h0l.11.064h0l.011.007h0l.011.007h0l.011.007h0l.084.05h0l.011.007h0l.01.006h0l.01.006,0,0,.01.006h0l.083.05h0l.01.006h0l.01.006,0,0,.01.006h0l.01.006,0,0,.043.026,0,0,.008.005,0,0,.008,0,0,0,.008,0,0,0,.008,0,0,0L63,6.06l0,0,.009.005,0,0,.009.005h0l.042.026,0,0,.007,0,.006,0,.007,0,.006,0,.007,0,.006,0,.006,0,.007,0,.006,0,.007,0,.006,0,.006,0,.006,0,.008,0,.005,0,.013.008,0,0,.008,0,.006,0,.007,0,.006,0,.007,0,.005,0,.008,0,.005,0,.007,0,.006,0,.006,0,.006,0,.008,0,0,0,.011.007h0l.026.016h0l.012.008h0l.01.006,0,0,.009.005,0,0,.008.005,0,0,.009.006,0,0,.009.006,0,0,.01.006,0,0,.026.016h0l.012.007,0,0,.01.006,0,0,.01.006,0,0,.01.006,0,0,.011.007h0l.012.007h0l.066.041h0l.013.008h0l.013.008h0l.012.008h0l.012.008h0l.013.008h0l.079.05h0l.013.008h0A41.5,41.5,0,0,1,78.546,22.831h0l.007.013h0l.056.111h0l.056.112h0l.006.013v0l.006.012v0l.006.012h0l.006.013h0l.041.083h0l.006.013h0l.006.012v0l.006.012v0l.027.056h0l.007.014h0l.006.013h0l.006.012v0l.006.012h0l.006.013h0l.04.083v0l.006.012h0l.006.012v0l.005.011,0,0,.005.011v0l.006.012v0l.027.056h0l.006.013v0l.005.011v0l.005.011,0,0,.005.011v0l.006.012v0l.026.055v0l.005.011v0l0,.01,0,0,0,.009,0,0,.005.011v0l.006.012v0l.006.012v0l.02.042v0l.005.012,0,0,0,.01,0,0,0,.01,0,0,0,.01,0,0,0,.01,0,0,.005.011v0l.006.012v0l.013.028v0l.005.011v0l.005.011,0,0,0,.009,0,0,0,.009,0,.005,0,.01,0,0,0,.01,0,0,.006.012h0l.013.028h0l.006.013v0l.005.011,0,0,0,.01,0,0,0,.01,0,0,0,.01,0,0,0,.01v0l0,.01,0,0,.006.013h0l.006.014h0l.006.013v0l0,.011,0,0,0,.01,0,0,0,.009,0,0,0,.01,0,0,0,.009,0,.005,0,.009,0,0,0,.011v0l.012.027,0,0,0,.01,0,0,0,.01,0,.005,0,.008,0,.006,0,.007,0,.007,0,.007,0,.006,0,.008,0,.006,0,.009,0,0,0,.01,0,0,.006.014v0l0,.01,0,.006,0,.008,0,.006,0,.007,0,.007,0,.008,0,.006,0,.008,0,.006,0,.008,0,.006,0,.008,0,.006,0,.009,0,0,.006.013,0,0,0,.009,0,.006,0,.007,0,.007,0,.006,0,.007,0,.007,0,.007,0,.007,0,.006,0,.008,0,.006,0,.007,0,.006,0,.008,0,.006.012.027,0,.007,0,.007,0,.005,0,.008,0,.005,0,.009,0,.006,0,.007,0,.007,0,.007,0,.007,0,.007,0,.007,0,.006,0,.008,0,0,.013.03,0,.006,0,.008,0,.006,0,.008,0,.006,0,.008,0,.005,0,.008,0,.006,0,.008,0,.006,0,.008,0,.006,0,.008,0,.006,0,.008,0,.005.008.019v0l0,.01v0l0,.009,0,0,0,.009,0,0,0,.01,0,0,0,.009,0,0,0,.01,0,0,0,.01v0l.021.049h0l0,.01,0,0,0,.009,0,0,0,.008,0,.005,0,.009,0,0,0,.009,0,0,0,.009v0l0,.01v0l.016.038h0l0,.01,0,0,0,.01v0l0,.01v0l0,.01,0,0,0,.01,0,0,0,.009,0,0,0,.01v0l.02.048v0l0,.011v0l0,.01,0,0,0,.009,0,0,0,.009,0,0,0,.01v0l0,.01v0l.02.049h0l0,.01v0l0,.009,0,0,0,.009,0,.005,0,.008,0,.006,0,.008,0,0,0,.009v0l0,.01h0l.02.05v0l0,.01,0,0,0,.009,0,0,0,.009,0,0,0,.009,0,0,0,.009,0,0,0,.01v0l0,.011h0l.009.021,0,0,0,.011v0l0,.01,0,0,0,.009,0,0,0,.009,0,0,0,.009,0,0,0,.01v0l0,.011h0l.025.063v0l0,.011v0l0,.011v0l0,.011v0l0,.01v0l0,.01v0l0,.011h0l.02.051v0l0,.011v0l0,.011v0l0,.01v0l0,.01v0l0,.011v0l0,.011v0l.02.051h0l0,.012v0l0,.011v0l0,.011v0l0,.011v0l0,.011v0l0,.011v0l.025.064h0l0,.011v0l0,.011v0l0,.011v0l0,.011v0l0,.011v0l.03.078h0l0,.012h0l0,.011v0l0,.011v0l0,.012h0l.029.076v0l0,.01v0l0,.011v0l0,.011v0l0,.012v0l0,.012h0l.029.078h0l0,.012v0l0,.012h0l0,.012v0l0,.012h0l0,.013h0l.03.08h0l0,.013h0l0,.012v0l0,.012h0l.029.079h0l0,.011v0l0,.01v0l0,.011v0l0,.011v0l0,.011v0l.028.078h0l0,.013h0l0,.012v0l0,.012v0l0,.012v0l0,.012h0l.024.066v0l0,.012h0l0,.011v0l0,.012h0l0,.012h0l.028.079h0l0,.012v0l0,.011v0l0,.011v0l0,.012v0l0,.012v0l.023.066h0l0,.013h0l0,.013h0l0,.013h0l0,.013h0l.037.107h0l0,.013h0l0,.013h0l0,.013h0l.037.107h0l0,.012v0l0,.012h0l0,.013h0l.027.08h0l.009.026h0l0,.013h0l0,.013h0l.036.107h0l0,.013h0l0,.013h0l.036.107h0l0,.012h0l0,.012v0l0,.012h0l.031.093h0l0,.012h0l0,.012v0l0,.012h0l0,.013h0l.035.108h0l.034.108h0l0,.013h0l0,.012v0l0,.012v0l0,.012v0l.03.094h0l0,.012v0l0,.012h0l0,.013h0l.025.08h0l0,.012v0l0,.012v0l0,.012v0l0,.011v0l0,.012h0l0,.013h0l.021.067h0l0,.011v0l0,.011v0l0,.011v0l0,.01v0l0,.01v0l.02.066h0l0,.013v0l0,.012v0l0,.011v0l0,.011v0l0,.012v0l.023.078v0l0,.01v0l0,.011v0l0,.01v0l0,.011v0l0,.011h0l.02.066v0l0,.011v0l0,.011v0l0,.011v0l0,.011v0l0,.011v0l0,.012h0l.015.052v0l0,.012v0l0,.011v0l0,.011v0l0,.011v0l0,.012h0l.023.081v0l0,.011v0l0,.01v0l0,.011v0l0,.011v0l0,.011v0l.014.051v0l0,.011v0l0,.011v0l0,.01v0l0,.01v0l0,.01v0l0,.01v0l0,.01v0l.011.038h0l0,.011v0l0,.01v0l0,.01v0l0,.01v0l0,.01v0l0,.01v0l0,.011h0l.018.066v0l0,.01v0l0,.009,0,.006,0,.009v0l0,.01v0l0,.01v0l0,.011v0l.011.039h0l0,.01v0l0,.009v.005l0,.009v.005l0,.009v.005l0,.009,0,.006,0,.009v0l0,.01v0l.008.03,0,.008,0,.008,0,.007,0,.008,0,.006,0,.008,0,.007,0,.008,0,.006,0,.008,0,.006,0,.008,0,.006,0,.009,0,.006,0,.009v0l.009.034v.006l0,.009,0,.006,0,.008,0,.007,0,.008,0,.006,0,.008,0,.006,0,.009v.006l0,.009,0,.006,0,.009,0,.006,0,.009v0l0,.017,0,.007,0,.007,0,.008,0,.007,0,.008,0,.007,0,.007,0,.008,0,.007,0,.007,0,.008,0,.006,0,.01v.005l0,.01v0l.008.03v0l0,.011v.005l0,.009,0,.006,0,.009v.006l0,.009v.006l0,.009v.005l0,.01v.005l0,.011v0l0,.015h0l0,.015v0l0,.011v.006l0,.009v.006l0,.009v.006l0,.009v.006l0,.009v.006l0,.01v.005l0,.01v.005l0,.011v0l0,.015v0l0,.01v.006l0,.009v.006l0,.009v.005l0,.01V31.4l0,.01v.005l0,.01v0l0,.011v0l0,.012v0l.007.03h0l0,.015v0l0,.013v0l0,.011v0l0,.011v0l0,.011v0l0,.01v0l0,.012v0l.011.045v0l0,.012v0l0,.012v0l0,.011v0l0,.011v0l0,.012v0l0,.013v0l.014.061v0l0,.012v0l0,.011v0l0,.011v0l0,.011v0l0,.012v0l.018.077h0l0,.014v0l0,.013v0l0,.013v0l0,.014v0l.014.062h0l0,.015h0l0,.014v0l0,.014h0l0,.014v0l0,.014h0l.024.108v0l0,.014h0l0,.015h0l.027.124h0l.03.141h0l0,.015h0l.026.125h0q.207.983.366,1.982a2.253,2.253,0,0,1-4.451.7A36.477,36.477,0,0,0,65.5,13.4a37.162,37.162,0,0,0-11.1-6.528A37.536,37.536,0,0,0,41.2,4.506h0A37.3,37.3,0,0,0,19.555,11.35a2.253,2.253,0,0,1-2.6-3.68h0l.007,0,0,0,.008-.006h0l.019-.013h0L17,7.636l0,0,.008-.006,0,0,.028-.02h0l.009-.006h0l.039-.027h0l.009-.007h0l.009-.006h0l.039-.027h0l.039-.027h0A41.769,41.769,0,0,1,27.3,2.344h0l.106-.037h0l.058-.02h0l.046-.016h0l.011,0h0l.046-.016h0l.011,0h0l.046-.016h0l.045-.015h0l.01,0h0l.046-.015h0l.011,0h0l.047-.016h0l.046-.016h0l.011,0h0l.046-.015h0l.011,0h0l.045-.015h0l.011,0h0l.034-.011.013,0h0l.033-.011h0l.011,0h0l.011,0h0l.034-.011h0l.011,0h0l.045-.015.013,0h0l.035-.011h0l.013,0,.013,0,.031-.01.012,0h0l.045-.014.013,0h0l.034-.011h0l.011,0h0l.013,0,.033-.01.012,0h0l.01,0h0l.034-.011.012,0h0l.046-.014h0l.013,0,.033-.01.012,0,.013,0h0l.032-.01.013,0h0l.034-.011h0l.011,0h0l.011,0h0l.035-.011h0l.011,0h0l.045-.014.013,0h0l.033-.01h0l.014,0,.013,0,.032-.01.012,0,.013,0h0L29,1.79h0l.014,0,.013,0,.012,0,.018-.006.012,0,.013,0h0l.029-.009.013,0,.014,0,.007,0,.013,0,.014,0,.014,0,.013,0,.006,0,.015,0,.013,0,.013,0h0l.031-.009.012,0,.013,0h0l.02-.006h0l.014,0,.013,0,.014,0,.013,0,.007,0,.013,0,.014,0,.012,0,.017,0,.013,0,.014,0h0l.018-.005h0l.014,0,.013,0,.012,0,.019-.005.012,0,.013,0,.006,0,.029-.008.013,0,.014,0h0l.02-.006h0l.014,0,.014,0,.013,0,.014,0,.013,0,.014,0,.014,0,.006,0,.015,0,.013,0,.014,0,.006,0,.017,0h0l.014,0,.014,0,.015,0,.018-.005.014,0,.014,0,.014,0,.019-.005.015,0L30,1.5l.016,0h0l.014,0,.013,0,.013,0,.015,0,.014,0,.014,0,.014,0,.02-.005.014,0,.014,0,.013,0,.013,0,.014,0,.013,0,.014,0,.015,0,.013,0,.013,0h.006l.029-.008.013,0,.014,0,.018,0,.014,0,.015,0,.014,0,.018,0,.015,0,.014,0,.014,0,.013,0,.014,0,.014,0,.015,0h.005l.013,0,.015,0,.015,0,.016,0,.017,0,.014,0,.014,0,.007,0,.013,0,.014,0,.015,0,.014,0,.02-.005.014,0,.014,0,.007,0,.007,0,.02,0,.013,0,.014,0,.028-.007.014,0,.014,0,.013,0,.02-.005.014,0,.014,0,.007,0,.02,0,.014,0,.015,0h.006l.013,0,.014,0,.014,0,.014,0,.02-.005.015,0,.014,0,.015,0,.019,0,.014,0,.015,0h.005l.014,0,.014,0,.015,0,.016,0h0l.013,0,.015,0,.015,0,.016,0,.016,0,.014,0,.015,0h.005l.014,0,.014,0,.015,0h0l.012,0h0l.014,0,.014,0,.014,0,.017,0h0l.013,0,.014,0,.015,0h0l.014,0,.014,0,.014,0,.018,0h0l.014,0,.014,0,.015,0H31.6l.012,0h0l.012,0,.015,0,.015,0h.006l.013,0,.014,0,.015,0,.015,0h0l.014,0,.015,0,.014,0,.015,0,.018,0,.014,0,.015,0,.007,0,.013,0,.014,0,.014,0,.015,0H31.9l.013,0,.015,0,.015,0,.017,0,.016,0,.015,0,.015,0h.006l.013,0,.014,0,.015,0,.015,0h0l.014,0,.015,0,.016,0h0l.029-.006.014,0,.016,0h0l.014,0,.014,0,.014,0,.016,0h0l.014,0,.014,0,.014,0,.016,0,.018,0,.015,0,.015,0,.019,0,.014,0,.015,0,.015,0,.019,0,.015,0,.015,0,.017,0L32.5.9l.015,0,.015,0,.019,0,.014,0,.015,0,.016,0,.017,0,.015,0,.015,0,.017,0,.016,0,.015,0,.016,0,.018,0,.014,0,.015,0,.016,0,.017,0,.014,0,.015,0,.017,0,.017,0,.014,0,.016,0,.019,0,.014,0,.015,0,.018,0h0l.018,0,.016,0,.015,0,.015,0,.019,0,.015,0,.015,0,.018,0,.016,0,.015,0,.015,0,.018,0,.016,0,.015,0,.016,0,.018,0,.015,0,.014,0,.018,0,.017,0,.015,0,.014,0,.019,0,.015,0,.014,0,.03-.006.015,0,.016,0,.018,0h0l.018,0,.015,0,.015,0,.017,0,.017,0,.015,0,.03-.006.014,0,.016,0h0l.03-.005.015,0,.019,0h0l.018,0,.016,0,.015,0,.03-.005.015,0,.015,0h0l.03-.005.015,0,.015,0,.018,0,.015,0,.016,0,.018,0,.016,0,.015,0,.017,0h0l.031-.005.015,0,.017,0h0l.018,0,.016,0,.015,0L34.08.6,34.1.6l.016,0h0l.03-.005.016,0,.017,0,.017,0,.014,0,.016,0h0l.03-.005.014,0,.016,0,.018,0,.015,0,.015,0,.018,0h0l.017,0,.017,0,.015,0,.03,0,.015,0,.016,0h0l.031,0,.016,0,.017,0h0l.016,0h0l.017,0,.016,0,.032,0h0l.017,0,.014,0h0l.031,0,.015,0,.018,0h0l.018,0,.016,0,.015,0,.03,0,.015,0,.015,0,.019,0,.014,0,.016,0,.017,0,.017,0,.015,0,.016,0h0l.031,0,.014,0,.016,0h0l.03,0,.015,0,.018,0h0l.018,0,.017,0,.016,0,.03,0,.015,0,.016,0,.018,0,.015,0,.016,0,.016,0,.018,0,.015,0,.016,0h0l.031,0,.015,0,.017,0h0l.031,0,.015,0h0l.031,0,.015,0h0l.015,0,.03,0,.016,0,.016,0h0l.031,0,.016,0,.016,0,.017,0,.015,0,.016,0h0l.03,0,.015,0,.016,0h0l.03,0,.015,0h0l.031,0,.015,0,.015,0,.018,0,.016,0,.015,0,.015,0,.019,0,.015,0,.016,0,.017,0,.018,0,.015,0,.016,0,.018,0,.016,0,.015,0,.016,0h0l.031,0,.015,0,.018,0h0l.018,0,.017,0,.015,0,.031,0,.015,0,.016,0h0l.031,0,.016,0,.017,0,.017,0,.015,0,.016,0h0l.031,0,.015,0,.017,0h0l.031,0,.015,0h0l.031,0,.015,0,.016,0h0l.031,0,.016,0,.016,0h0l.031,0,.016,0,.016,0,.018,0,.015,0,.016,0,.017,0,.017,0,.015,0,.016,0,.019,0,.015,0,.016,0,.017,0,.017,0,.015,0,.016,0,.016,0,.018,0,.015,0,.016,0,.034,0,.016,0,.016,0,.018,0h.03L37.1.2l.017,0h.015l.016,0,.02,0h.03l.017,0,.018,0h.031l.018,0,.016,0h.031l.019,0H37.4l.018,0h.047l.019,0h.031l.034,0h.032l.018,0h.031l.018,0H37.7l.034,0h.085l.032,0h.034l.034,0h.148l.035,0h.147l.034,0h.082l.034,0h.032l.034,0h.148l.035,0H41.2Z" transform="translate(150.316 67.76)" fill="#fff"/>
  </g>
</svg>
