<svg xmlns="http://www.w3.org/2000/svg" width="206" height="37" viewBox="0 0 206 37">
  <g id="Group_19" data-name="Group 19" transform="translate(-261 -5101.519)">
    <path id="Polygon_1" data-name="Polygon 1" d="M16,0l4.24,13.358L32,14.133l-9.14,9.03L25.889,37,16,29.223,6.111,37,9.14,23.163,0,14.133l11.76-.775Z" transform="translate(261 5101.519)" fill="#f1f129"/>
    <path id="Polygon_2" data-name="Polygon 2" d="M16.5,0l4.372,13.358L33,14.133l-9.425,9.03L26.7,37,16.5,29.223,6.3,37,9.425,23.163,0,14.133l12.127-.775Z" transform="translate(304 5101.519)" fill="#f1f129"/>
    <path id="Polygon_3" data-name="Polygon 3" d="M16.5,0l4.372,13.358L33,14.133l-9.425,9.03L26.7,37,16.5,29.223,6.3,37,9.425,23.163,0,14.133l12.127-.775Z" transform="translate(348 5101.519)" fill="#f1f129"/>
    <path id="Polygon_4" data-name="Polygon 4" d="M16.5,0l4.372,13.358L33,14.133l-9.425,9.03L26.7,37,16.5,29.223,6.3,37,9.425,23.163,0,14.133l12.127-.775Z" transform="translate(391 5101.519)" fill="#f1f129"/>
    <path id="Polygon_5" data-name="Polygon 5" d="M16,0l4.24,13.358L32,14.133l-9.14,9.03L25.889,37,16,29.223,6.111,37,9.14,23.163,0,14.133l11.76-.775Z" transform="translate(435 5101.519)" fill="#f1f129"/>
  </g>
</svg>
