<svg xmlns="http://www.w3.org/2000/svg" width="54.054" height="57.187" viewBox="0 0 54.054 57.187">
  <g id="Group_11" data-name="Group 11" transform="translate(-21.314 -14.974)">
    <path id="Path_8" data-name="Path 8" d="M47.157,27.333c-2.492-3.039-8.328-9.3-13.434-9.027-5.805.426-9.756,6.747-10.881,10.668-2.979,10.3,7.75,25.926,25.5,37.262a79.881,79.881,0,0,0,15.5-12.765" transform="translate(0 4.738)" fill="none" stroke="#000" stroke-linecap="round" stroke-miterlimit="10" stroke-width="2"/>
    <path id="Path_9" data-name="Path 9" d="M30.511,27.338a47.139,47.139,0,0,1,8.814-6.9c2.34-1.337,4.833-2.28,7.021-2.128a10.122,10.122,0,0,1,6.291,3.1A18.208,18.208,0,0,1,57.2,28.979c1.428,4.954-.3,11.154-4.5,17.507" transform="translate(16.646 4.733)" fill="none" stroke="#000" stroke-linecap="round" stroke-miterlimit="10" stroke-width="2"/>
    <path id="Path_10" data-name="Path 10" d="M51.034,20.984v4.03H44.591V31H39.864v-5.99H33.393v-4.03h6.471v-5.01h4.727v5.01Z" transform="translate(22.524)" fill="#fff" stroke="#000" stroke-miterlimit="10" stroke-width="2"/>
  </g>
</svg>
